<svg aria-hidden="true" style="position: absolute; width: 0; height: 0; overflow: hidden;" version="1.1" xmlns="http://www.w3.org/2000/svg" xmlns:xlink="http://www.w3.org/1999/xlink">
<defs>
<symbol id="icon-yacht" viewBox="0 0 32 32">
<path d="M0 25.621l7.219 6.379h21.176l3.032-4.26-31.424-2.119z"></path>
<path d="M18.647 0v25.431l9.745 0.671z"></path>
<path d="M17.319 4.285l-14.080 20.036 14.080 0.951z"></path>
</symbol>
<symbol id="icon-youtube" viewBox="0 0 32 32">
<path stroke-linejoin="miter" stroke-linecap="butt" stroke-miterlimit="4" stroke-width="0.8" d="M4.8 0.4h22.4c2.43 0 4.4 1.97 4.4 4.4v22.4c0 2.43-1.97 4.4-4.4 4.4h-22.4c-2.43 0-4.4-1.97-4.4-4.4v-22.4c0-2.43 1.97-4.4 4.4-4.4z"></path>
<path d="M20.12 11c-0.68-0.040-2.080-0.080-4.2-0.080h-0.28c-2.040 0-3.4 0.040-4.080 0.12-0.92 0.080-1.56 0.32-1.92 0.64-0.32 0.28-0.56 0.8-0.64 1.48-0.040 0.44-0.080 1.36-0.080 2.76v0.2c0 1.32 0.040 2.24 0.12 2.68 0.12 0.64 0.32 1.12 0.72 1.4 0.4 0.32 1.080 0.52 2.040 0.6 0.68 0.040 2.080 0.080 4.2 0.080h0.28c2.040 0 3.4-0.040 4.080-0.12 0.92-0.080 1.56-0.32 1.92-0.64 0.32-0.28 0.56-0.8 0.64-1.48 0.040-0.44 0.080-1.36 0.080-2.76v-0.2c0-1.32-0.040-2.24-0.12-2.68-0.12-0.64-0.32-1.12-0.72-1.4-0.4-0.32-1.080-0.52-2.040-0.6zM18.56 15.92l-4.4 2.64v-5.28l4.4 2.64z"></path>
</symbol>
<symbol id="icon-instagram" viewBox="0 0 32 32">
<path stroke-linejoin="miter" stroke-linecap="butt" stroke-miterlimit="4" stroke-width="0.8" d="M4.8 0.4h22.4c2.43 0 4.4 1.97 4.4 4.4v22.4c0 2.43-1.97 4.4-4.4 4.4h-22.4c-2.43 0-4.4-1.97-4.4-4.4v-22.4c0-2.43 1.97-4.4 4.4-4.4z"></path>
<path d="M19.845 11.291c-0.171 0-0.338 0.051-0.48 0.146s-0.253 0.23-0.318 0.388c-0.065 0.158-0.082 0.332-0.049 0.499s0.116 0.322 0.236 0.442c0.121 0.121 0.275 0.203 0.442 0.236s0.341 0.016 0.499-0.049c0.158-0.065 0.293-0.176 0.388-0.318s0.146-0.309 0.146-0.48c0-0.229-0.091-0.449-0.253-0.611s-0.382-0.253-0.611-0.253zM23.157 13.034c-0.014-0.597-0.126-1.188-0.331-1.75-0.183-0.48-0.468-0.915-0.835-1.274-0.357-0.369-0.792-0.652-1.274-0.828-0.56-0.212-1.151-0.326-1.75-0.338-0.763-0.043-1.008-0.043-2.966-0.043s-2.203 0-2.966 0.043c-0.598 0.012-1.19 0.127-1.75 0.338-0.481 0.178-0.917 0.46-1.274 0.828-0.369 0.357-0.652 0.792-0.828 1.274-0.212 0.56-0.326 1.151-0.338 1.75-0.043 0.763-0.043 1.008-0.043 2.966s0 2.203 0.043 2.966c0.012 0.598 0.127 1.19 0.338 1.75 0.176 0.482 0.459 0.918 0.828 1.274 0.358 0.368 0.793 0.65 1.274 0.828 0.56 0.212 1.151 0.326 1.75 0.338 0.763 0.043 1.008 0.043 2.966 0.043s2.203 0 2.966-0.043c0.598-0.012 1.19-0.127 1.75-0.338 0.482-0.176 0.918-0.459 1.274-0.828 0.369-0.358 0.654-0.793 0.835-1.274 0.205-0.561 0.317-1.152 0.331-1.75 0-0.763 0.043-1.008 0.043-2.966s0-2.203-0.043-2.966zM21.861 18.88c-0.005 0.457-0.088 0.91-0.245 1.339-0.115 0.313-0.3 0.596-0.54 0.828-0.234 0.238-0.516 0.422-0.828 0.54-0.429 0.157-0.882 0.24-1.339 0.245-0.72 0.036-0.986 0.043-2.88 0.043s-2.16 0-2.88-0.043c-0.475 0.009-0.947-0.064-1.397-0.216-0.298-0.124-0.568-0.308-0.792-0.54-0.239-0.231-0.421-0.515-0.533-0.828-0.176-0.436-0.273-0.899-0.288-1.368 0-0.72-0.043-0.986-0.043-2.88s0-2.16 0.043-2.88c0.003-0.467 0.089-0.93 0.252-1.368 0.127-0.304 0.321-0.575 0.569-0.792 0.219-0.248 0.489-0.444 0.792-0.576 0.439-0.158 0.901-0.241 1.368-0.245 0.72 0 0.986-0.043 2.88-0.043s2.16 0 2.88 0.043c0.457 0.005 0.91 0.088 1.339 0.245 0.327 0.121 0.621 0.319 0.857 0.576 0.236 0.221 0.42 0.492 0.54 0.792 0.16 0.438 0.243 0.901 0.245 1.368 0.036 0.72 0.043 0.986 0.043 2.88s-0.007 2.16-0.043 2.88zM16 12.306c-0.73 0.001-1.444 0.219-2.050 0.626s-1.079 0.984-1.357 1.659c-0.278 0.675-0.351 1.417-0.207 2.133s0.496 1.374 1.013 1.889c0.517 0.516 1.175 0.867 1.891 1.009s1.459 0.068 2.133-0.211 1.251-0.753 1.656-1.36c0.406-0.607 0.622-1.321 0.622-2.051 0.001-0.486-0.094-0.967-0.28-1.416s-0.458-0.857-0.802-1.2c-0.344-0.343-0.752-0.615-1.202-0.8s-0.931-0.279-1.417-0.277zM16 18.398c-0.474 0-0.938-0.141-1.332-0.404s-0.702-0.638-0.883-1.076c-0.181-0.438-0.229-0.92-0.136-1.385s0.321-0.892 0.656-1.228 0.763-0.564 1.228-0.656c0.465-0.093 0.947-0.045 1.385 0.136s0.813 0.489 1.076 0.883c0.263 0.394 0.404 0.858 0.404 1.332 0 0.315-0.062 0.627-0.182 0.918s-0.297 0.555-0.52 0.778c-0.223 0.223-0.487 0.399-0.778 0.52s-0.603 0.182-0.918 0.182z"></path>
</symbol>
<symbol id="icon-facebook" viewBox="0 0 32 32">
<path stroke-linejoin="miter" stroke-linecap="butt" stroke-miterlimit="4" stroke-width="0.8" d="M4.8 0.4h22.4c2.43 0 4.4 1.97 4.4 4.4v22.4c0 2.43-1.97 4.4-4.4 4.4h-22.4c-2.43 0-4.4-1.97-4.4-4.4v-22.4c0-2.43 1.97-4.4 4.4-4.4z"></path>
<path d="M18.552 10.523h1.448v-2.417c-0.701-0.072-1.405-0.107-2.11-0.106-2.094 0-3.526 1.262-3.526 3.572v1.991h-2.364v2.706h2.364v6.931h2.833v-6.931h2.356l0.354-2.706h-2.71v-1.725c0-0.798 0.216-1.315 1.355-1.315z"></path>
</symbol>
<symbol id="icon-close" viewBox="0 0 32 32">
<path stroke-linejoin="round" stroke-linecap="round" stroke-miterlimit="4" stroke-width="1.7333" d="M24 8l-16 16"></path>
<path stroke-linejoin="round" stroke-linecap="round" stroke-miterlimit="4" stroke-width="1.7333" d="M8 8l16 16"></path>
</symbol>
<symbol id="icon-arrow-right" viewBox="0 0 32 32">
<path d="M22.222 8.302l9.778 7.698-9.778 7.698v-6.365h-22.222v-2.667h22.222v-6.365z"></path>
</symbol>
<symbol id="icon-arrow-left" viewBox="0 0 32 32">
<path d="M9.778 8.302l-9.778 7.698 9.778 7.698v-6.365h22.222v-2.667h-22.222v-6.365z"></path>
</symbol>
<symbol id="icon-yacht-logo" viewBox="0 0 397 32">
<path d="M9.166 29.44v-9.562l-9.024-17.318h5.568l5.952 12.403 5.914-12.403h5.491l-8.986 17.318v9.562h-4.915z"></path>
<path d="M22.528 29.44l9.83-26.88h5.53l9.83 26.88h-5.222l-2.15-6.221h-10.483l-2.189 6.221h-5.146zM31.206 19.379h7.795l-3.917-11.174-3.878 11.174z"></path>
<path d="M62.968 29.901c-2.714 0-5.043-0.576-6.989-1.728-1.946-1.178-3.443-2.803-4.493-4.877-1.050-2.099-1.574-4.518-1.574-7.258s0.525-5.158 1.574-7.258c1.050-2.099 2.547-3.738 4.493-4.915s4.275-1.766 6.989-1.766c3.226 0 5.862 0.806 7.91 2.419 2.074 1.587 3.366 3.827 3.878 6.72h-5.414c-0.333-1.459-1.050-2.598-2.15-3.418-1.075-0.845-2.509-1.267-4.301-1.267-2.483 0-4.429 0.845-5.837 2.534s-2.112 4.006-2.112 6.95c0 2.944 0.704 5.261 2.112 6.95 1.408 1.664 3.354 2.496 5.837 2.496 1.792 0 3.226-0.384 4.301-1.152 1.101-0.794 1.818-1.882 2.15-3.264h5.414c-0.512 2.765-1.805 4.928-3.878 6.49-2.048 1.562-4.685 2.342-7.91 2.342z"></path>
<path d="M80.26 29.44v-26.88h4.915v11.174h12.058v-11.174h4.915v26.88h-4.915v-11.712h-12.058v11.712h-4.915z"></path>
<path d="M114.783 29.44v-22.925h-7.834v-3.955h20.621v3.955h-7.872v22.925h-4.915z"></path>
<path d="M140.938 29.44l9.83-26.88h5.53l9.83 26.88h-5.222l-2.15-6.221h-10.483l-2.189 6.221h-5.146zM149.616 19.379h7.795l-3.917-11.174-3.878 11.174z"></path>
<path d="M170.743 29.44v-26.88h9.178c3.149 0 5.734 0.563 7.757 1.69 2.048 1.101 3.558 2.662 4.531 4.685 0.998 1.997 1.498 4.352 1.498 7.066s-0.499 5.082-1.498 7.104c-0.973 1.997-2.483 3.558-4.531 4.685-2.022 1.101-4.608 1.651-7.757 1.651h-9.178zM175.658 25.216h4.032c2.253 0 4.032-0.358 5.338-1.075 1.306-0.742 2.24-1.792 2.803-3.149 0.563-1.382 0.845-3.046 0.845-4.992 0-1.92-0.282-3.571-0.845-4.954s-1.498-2.445-2.803-3.187c-1.306-0.742-3.085-1.114-5.338-1.114h-4.032v18.47z"></path>
<path d="M206.090 29.44l-9.83-26.88h5.261l7.603 21.85 7.642-21.85h5.184l-9.831 26.88h-6.029z"></path>
<path d="M226.298 29.44v-26.88h17.549v3.955h-12.634v7.373h11.482v3.84h-11.482v7.757h12.634v3.955h-17.549z"></path>
<path d="M249.649 29.44v-26.88h4.915l12.634 18.931v-18.931h4.915v26.88h-4.915l-12.634-18.893v18.893h-4.915z"></path>
<path d="M284.734 29.44v-22.925h-7.834v-3.955h20.621v3.955h-7.872v22.925h-4.915z"></path>
<path d="M312.683 29.901c-1.971 0-3.75-0.384-5.338-1.152-1.587-0.794-2.854-1.984-3.802-3.571-0.922-1.587-1.382-3.597-1.382-6.029v-16.589h4.915v16.627c0 2.099 0.499 3.661 1.498 4.685 1.024 1.024 2.432 1.536 4.224 1.536 1.766 0 3.162-0.512 4.186-1.536s1.536-2.586 1.536-4.685v-16.627h4.915v16.589c0 2.432-0.486 4.442-1.459 6.029s-2.278 2.778-3.917 3.571c-1.613 0.768-3.405 1.152-5.376 1.152z"></path>
<path d="M329.604 29.44v-26.88h9.869c2.15 0 3.917 0.371 5.299 1.114 1.408 0.717 2.458 1.702 3.149 2.957 0.691 1.229 1.037 2.598 1.037 4.109 0 1.638-0.435 3.136-1.306 4.493-0.845 1.357-2.176 2.342-3.994 2.957l5.568 11.251h-5.645l-4.992-10.598h-4.070v10.598h-4.915zM334.519 15.232h4.646c1.638 0 2.842-0.397 3.61-1.19s1.152-1.843 1.152-3.149c0-1.28-0.384-2.304-1.152-3.072-0.742-0.768-1.958-1.152-3.648-1.152h-4.608v8.563z"></path>
<path d="M354.682 29.44v-26.88h17.549v3.955h-12.634v7.373h11.482v3.84h-11.482v7.757h12.634v3.955h-17.549z"></path>
<path d="M387.211 29.901c-1.971 0-3.712-0.333-5.222-0.998-1.51-0.691-2.701-1.664-3.571-2.918-0.87-1.28-1.318-2.829-1.344-4.646h5.184c0.051 1.254 0.499 2.317 1.344 3.187 0.87 0.845 2.061 1.267 3.571 1.267 1.306 0 2.342-0.307 3.11-0.922 0.768-0.64 1.152-1.485 1.152-2.534 0-1.101-0.346-1.958-1.037-2.573-0.666-0.614-1.562-1.114-2.688-1.498s-2.33-0.794-3.61-1.229c-2.074-0.717-3.661-1.638-4.762-2.765-1.075-1.126-1.613-2.624-1.613-4.493-0.026-1.587 0.346-2.944 1.114-4.070 0.794-1.152 1.869-2.035 3.226-2.65 1.357-0.64 2.918-0.96 4.685-0.96 1.792 0 3.366 0.32 4.723 0.96 1.382 0.64 2.458 1.536 3.226 2.688 0.794 1.152 1.216 2.522 1.267 4.109h-5.261c-0.026-0.947-0.397-1.779-1.114-2.496-0.691-0.742-1.664-1.114-2.918-1.114-1.075-0.026-1.984 0.243-2.726 0.806-0.717 0.538-1.075 1.331-1.075 2.381 0 0.896 0.282 1.613 0.845 2.15 0.563 0.512 1.331 0.947 2.304 1.306s2.086 0.742 3.341 1.152c1.331 0.461 2.547 0.998 3.648 1.613s1.984 1.434 2.65 2.458c0.666 0.998 0.998 2.291 0.998 3.878 0 1.408-0.358 2.714-1.075 3.917s-1.779 2.176-3.187 2.918c-1.408 0.717-3.136 1.075-5.184 1.075z"></path>
</symbol>
</defs>
</svg>
